<?xml version="1.0" encoding="UTF-8"?>
<svg id="Layer_2" data-name="Layer 2" xmlns="http://www.w3.org/2000/svg" viewBox="0 0 109.17 109.17">
  <defs>
    <style>
      .cls-1 {
        fill: #ff6464;
        stroke-width: 0px;
      }
    </style>
  </defs>
  <g id="Layer_1-2" data-name="Layer 1">
    <g>
      <path class="cls-1" d="m37.73,54.58c.43-8.17,7-14.74,15.16-15.16v-10.13c-13.75.44-24.85,11.54-25.29,25.29h10.13Z"/>
      <path class="cls-1" d="m79.87,39.42c-8.17.43-14.74,7-15.16,15.16h-10.13c.44-13.75,11.54-24.85,25.29-25.29v10.13Z"/>
      <path class="cls-1" d="m52.9,71.43c-8.17-.43-14.74-7-15.16-15.16h-10.13c.44,13.75,11.54,24.85,25.29,25.29v-10.13Z"/>
      <path class="cls-1" d="m69.75,56.27c-.43,8.17-7,14.74-15.16,15.16v10.13c13.75-.44,24.85-11.54,25.29-25.29h-10.13Z"/>
    </g>
    <g>
      <polygon class="cls-1" points="109.17 14.21 109.17 0 95.43 0 95.43 4.62 104.54 4.62 104.54 14.21 109.17 14.21"/>
      <polygon class="cls-1" points="104.54 18.83 104.54 104.54 4.62 104.54 4.62 4.62 90.8 4.62 90.8 0 0 0 0 109.17 109.17 109.17 109.17 18.83 104.54 18.83"/>
    </g>
  </g>
</svg>